<svg width="18" height="19" viewBox="0 0 18 19" fill="none" xmlns="http://www.w3.org/2000/svg">
<path d="M3.375 4.1593C2.44995 4.1593 1.6875 4.92175 1.6875 5.8468V9.66125C1.34473 9.97107 1.125 10.4149 1.125 10.9093V15.9718H3.9375V14.8468H14.0625V15.9718H16.875V10.9093C16.875 10.4149 16.6553 9.97107 16.3125 9.66125V5.8468C16.3125 4.92175 15.55 4.1593 14.625 4.1593H3.375ZM3.375 5.2843H14.625C14.937 5.2843 15.1875 5.53479 15.1875 5.8468V9.2218H14.0625V8.6593C14.0625 7.73425 13.3 6.9718 12.375 6.9718H10.125C9.69434 6.9718 9.29883 7.14099 9 7.41125C8.70117 7.14099 8.30566 6.9718 7.875 6.9718H5.625C4.69995 6.9718 3.9375 7.73425 3.9375 8.6593V9.2218H2.8125V5.8468C2.8125 5.53479 3.06299 5.2843 3.375 5.2843ZM5.625 8.0968H7.875C8.18701 8.0968 8.4375 8.34729 8.4375 8.6593V9.2218H5.0625V8.6593C5.0625 8.34729 5.31299 8.0968 5.625 8.0968ZM10.125 8.0968H12.375C12.687 8.0968 12.9375 8.34729 12.9375 8.6593V9.2218H9.5625V8.6593C9.5625 8.34729 9.81299 8.0968 10.125 8.0968ZM2.8125 10.3468H15.1875C15.4995 10.3468 15.75 10.5973 15.75 10.9093V14.8468H15.1875V13.7218H2.8125V14.8468H2.25V10.9093C2.25 10.5973 2.50049 10.3468 2.8125 10.3468Z" fill="#364A63"/>
</svg>
