<svg width="18" height="19" viewBox="0 0 18 19" fill="none" xmlns="http://www.w3.org/2000/svg">
<path d="M9 3.5968C6.8313 3.5968 5.0625 5.3656 5.0625 7.5343C5.0625 8.89001 5.75464 10.0941 6.80273 10.8038C4.79663 11.6652 3.375 13.6559 3.375 15.9718H4.5C4.5 13.4801 6.5083 11.4718 9 11.4718C11.4917 11.4718 13.5 13.4801 13.5 15.9718H14.625C14.625 13.6559 13.2034 11.6652 11.1973 10.8038C12.2454 10.0941 12.9375 8.89001 12.9375 7.5343C12.9375 5.3656 11.1687 3.5968 9 3.5968ZM9 4.7218C10.5601 4.7218 11.8125 5.97424 11.8125 7.5343C11.8125 9.09436 10.5601 10.3468 9 10.3468C7.43994 10.3468 6.1875 9.09436 6.1875 7.5343C6.1875 5.97424 7.43994 4.7218 9 4.7218Z" fill="#364A63"/>
</svg>
