<svg width="22" height="20" viewBox="0 0 22 20" fill="none" xmlns="http://www.w3.org/2000/svg">
<path fill-rule="evenodd" clip-rule="evenodd" d="M1.83337 10C1.83337 10 5.16671 3.33337 11 3.33337C16.8334 3.33337 20.1667 10 20.1667 10C20.1667 10 16.8334 16.6667 11 16.6667C5.16671 16.6667 1.83337 10 1.83337 10Z" stroke="#334335" stroke-width="2" stroke-linecap="round" stroke-linejoin="round"/>
<path fill-rule="evenodd" clip-rule="evenodd" d="M1.83337 10C1.83337 10 5.16671 3.33337 11 3.33337C16.8334 3.33337 20.1667 10 20.1667 10C20.1667 10 16.8334 16.6667 11 16.6667C5.16671 16.6667 1.83337 10 1.83337 10Z" stroke="white" stroke-opacity="0.3" stroke-width="2" stroke-linecap="round" stroke-linejoin="round"/>
<path fill-rule="evenodd" clip-rule="evenodd" d="M11 12.5C12.3807 12.5 13.5 11.3807 13.5 10C13.5 8.61929 12.3807 7.5 11 7.5C9.61929 7.5 8.5 8.61929 8.5 10C8.5 11.3807 9.61929 12.5 11 12.5Z" stroke="#222823" stroke-width="2" stroke-linecap="round" stroke-linejoin="round"/>
</svg>
