<svg width="18" height="19" viewBox="0 0 18 19" fill="none" xmlns="http://www.w3.org/2000/svg">
<path d="M9 3.0343C5.27783 3.0343 2.25 6.06213 2.25 9.7843C2.25 13.5065 5.27783 16.5343 9 16.5343C12.7222 16.5343 15.75 13.5065 15.75 9.7843C15.75 6.06213 12.7222 3.0343 9 3.0343ZM9 4.1593C12.1135 4.1593 14.625 6.67078 14.625 9.7843C14.625 12.8978 12.1135 15.4093 9 15.4093C5.88647 15.4093 3.375 12.8978 3.375 9.7843C3.375 6.67078 5.88647 4.1593 9 4.1593ZM8.4375 5.2843V10.3468H12.375V9.2218H9.5625V5.2843H8.4375Z" fill="#364A63"/>
</svg>
