<svg width="18" height="19" viewBox="0 0 18 19" fill="none" xmlns="http://www.w3.org/2000/svg">
<path d="M8.92969 3.0343L8.87695 3.05188L4.37695 4.10657L3.9375 4.21204V15.6027L4.39453 15.673L8.89453 16.5167L8.94727 16.5343H10.125V3.0343H8.92969ZM11.25 4.1593V5.2843H12.9375V14.2843H11.25V15.4093H14.0625V4.1593H11.25ZM9 4.17688V15.4093L5.0625 14.671V5.09094L9 4.17688ZM8.06836 9.2218C7.86182 9.2218 7.68164 9.47449 7.68164 9.7843C7.68164 10.0941 7.86182 10.3468 8.06836 10.3468C8.2749 10.3468 8.4375 10.0941 8.4375 9.7843C8.4375 9.47449 8.2749 9.2218 8.06836 9.2218Z" fill="#364A63"/>
</svg>
