<svg width="12" height="13" viewBox="0 0 12 13" fill="none" xmlns="http://www.w3.org/2000/svg">
<g clip-path="url(#clip0_7_5569)">
<path d="M4.95 2.62001C5.29417 2.53945 5.64653 2.49918 6 2.50001C9.5 2.50001 11.5 6.50001 11.5 6.50001C11.1965 7.06782 10.8345 7.60238 10.42 8.09501M7.06 7.56001C6.92268 7.70739 6.75707 7.82559 6.57308 7.90757C6.38908 7.98956 6.19045 8.03364 5.98905 8.0372C5.78764 8.04075 5.58758 8.0037 5.4008 7.92826C5.21403 7.85282 5.04436 7.74053 4.90192 7.59809C4.75949 7.45565 4.6472 7.28598 4.57175 7.09921C4.49631 6.91243 4.45926 6.71237 4.46282 6.51097C4.46637 6.30956 4.51045 6.11094 4.59244 5.92694C4.67442 5.74294 4.79263 5.57734 4.94 5.44001M8.97 9.47001C8.1153 10.1215 7.07455 10.4824 6 10.5C2.5 10.5 0.5 6.50001 0.5 6.50001C1.12194 5.34096 1.98457 4.32832 3.03 3.53001L8.97 9.47001Z" stroke="#0C0D0C" stroke-linecap="round" stroke-linejoin="round"/>
<path d="M0.5 1.00024L11.5 12.0002" stroke="#0C0D0C" stroke-linecap="round" stroke-linejoin="round"/>
</g>
<defs>
<clipPath id="clip0_7_5569">
<rect width="12" height="12" fill="white" transform="translate(0 0.5)"/>
</clipPath>
</defs>
</svg>
