<svg width="29" height="29" viewBox="0 0 29 29" fill="none" xmlns="http://www.w3.org/2000/svg">
<g clip-path="url(#clip0_710_72)">
<path d="M20.6031 8.39685C17.4353 5.22903 12.2804 5.22903 9.11261 8.39685C5.94478 11.5647 5.94478 16.7195 9.11261 19.8873C12.2804 23.0552 17.4353 23.0552 20.6031 19.8873C23.7709 16.7195 23.7709 11.5647 20.6031 8.39685ZM19.7192 9.28074C22.4088 11.9704 22.4088 16.3138 19.7192 19.0035C17.0296 21.6931 12.6861 21.6931 9.99649 19.0035C7.30686 16.3138 7.30686 11.9704 9.99649 9.28074C12.6861 6.59111 17.0296 6.59111 19.7192 9.28074ZM17.9514 11.0485H14.4159L15.7417 12.3743L11.3223 16.7937L12.2062 17.6776L16.6256 13.2582L17.9514 14.584V11.0485Z" fill="#364A63"/>
</g>
<defs>
<clipPath id="clip0_710_72">
<rect width="20" height="20" fill="white" transform="translate(14.8578) rotate(45)"/>
</clipPath>
</defs>
</svg>
