<svg width="32" height="33" viewBox="0 0 32 33" fill="none" xmlns="http://www.w3.org/2000/svg">
<rect x="0.5" y="1" width="31" height="31" rx="7.5" fill="white"/>
<rect x="0.5" y="1" width="31" height="31" rx="7.5" stroke="#8091A7"/>
<path d="M16 10C15.4473 10 15 10.4473 15 11C15 11.043 15.0098 11.084 15.0156 11.125C13.2871 11.5664 12 13.1367 12 15V19.5C12 19.7832 11.7832 20 11.5 20H11V21H14.5938C14.5371 21.1582 14.5 21.3242 14.5 21.5C14.5 22.3223 15.1777 23 16 23C16.8223 23 17.5 22.3223 17.5 21.5C17.5 21.3242 17.4629 21.1582 17.4062 21H21V20H20.5C20.2168 20 20 19.7832 20 19.5V15.1406C20 13.2617 18.7441 11.5859 16.9844 11.125C16.9902 11.084 17 11.043 17 11C17 10.4473 16.5527 10 16 10ZM15.7812 12C15.8535 11.9941 15.9258 12 16 12C16.0312 12 16.0625 12 16.0938 12C17.7266 12.0488 19 13.4805 19 15.1406V19.5C19 19.6758 19.0371 19.8418 19.0938 20H12.9062C12.9629 19.8418 13 19.6758 13 19.5V15C13 13.4121 14.2227 12.1133 15.7812 12ZM16 21C16.2812 21 16.5 21.2188 16.5 21.5C16.5 21.7812 16.2812 22 16 22C15.7188 22 15.5 21.7812 15.5 21.5C15.5 21.2188 15.7188 21 16 21Z" fill="#8091A7"/>
<circle cx="23" cy="8.5" r="2" fill="#E85347"/>
</svg>
