<svg width="171" height="36" viewBox="0 0 171 36" fill="none" xmlns="http://www.w3.org/2000/svg">
<path d="M23.7101 22.5C29.6622 22.5 34.4874 17.4632 34.4874 11.25C34.4874 5.03679 29.6622 0 23.7101 0C17.758 0 12.9328 5.03679 12.9328 11.25C12.9328 17.4632 17.758 22.5 23.7101 22.5Z" fill="white"/>
<path d="M8.62185 36C13.3836 36 17.2437 31.9705 17.2437 27C17.2437 22.0294 13.3836 18 8.62185 18C3.86013 18 0 22.0294 0 27C0 31.9705 3.86013 36 8.62185 36Z" fill="#F5F6FA"/>
<path d="M30.1765 36C32.5574 36 34.4874 33.9854 34.4874 31.5C34.4874 29.0146 32.5574 27 30.1765 27C27.7955 27 25.8655 29.0146 25.8655 31.5C25.8655 33.9854 27.7955 36 30.1765 36Z" fill="#B6C6E3"/>
<path d="M53.1091 11.2647C52.1268 11.2647 51.2474 11.4502 50.4709 11.8213C49.7038 12.1924 49.0536 12.7295 48.5203 13.4326C47.987 14.126 47.5801 14.9707 47.2995 15.9667C47.0188 16.9531 46.8784 18.0664 46.8784 19.3066C46.8784 20.9668 47.103 22.3974 47.5521 23.5986C48.0011 24.79 48.6841 25.708 49.6009 26.3526C50.5177 26.9872 51.6778 27.3046 53.0811 27.3046C53.9511 27.3046 54.7977 27.2167 55.621 27.0409C56.4442 26.8653 57.2956 26.626 58.1751 26.3232V29.3115C57.3423 29.6533 56.5004 29.9023 55.6491 30.0586C54.7977 30.2148 53.8154 30.2929 52.7022 30.2929C50.6065 30.2929 48.8665 29.8389 47.482 28.9306C46.1066 28.0224 45.0776 26.7432 44.3946 25.0927C43.7211 23.4424 43.3843 21.5088 43.3843 19.2919C43.3843 17.6709 43.5994 16.1865 44.0298 14.8389C44.4601 13.4912 45.0869 12.3291 45.9102 11.3525C46.7334 10.3662 47.7485 9.60937 48.9554 9.08203C50.1715 8.54491 51.5608 8.27637 53.1232 8.27637C54.1522 8.27637 55.1626 8.39844 56.1542 8.64258C57.1552 8.87695 58.0815 9.21387 58.9328 9.65332L57.754 12.5537C57.043 12.2022 56.2992 11.8994 55.5228 11.6455C54.7463 11.3916 53.9417 11.2647 53.1091 11.2647ZM68.3349 13.4766C70.2995 13.4766 71.7823 13.9307 72.7833 14.8389C73.7937 15.747 74.2989 17.1631 74.2989 19.0869V30H71.9554L71.324 27.7002H71.2116C70.772 28.2861 70.3182 28.7695 69.8505 29.1504C69.3827 29.5312 68.84 29.8144 68.2227 30C67.6145 30.1953 66.8708 30.2929 65.9913 30.2929C65.0652 30.2929 64.2372 30.1171 63.5075 29.7657C62.7778 29.4043 62.2025 28.8574 61.7814 28.125C61.3605 27.3925 61.15 26.4648 61.15 25.3417C61.15 23.6718 61.7441 22.417 62.9322 21.5772C64.1297 20.7373 65.9353 20.2734 68.349 20.1855L71.0433 20.083V19.2334C71.0433 18.1104 70.7907 17.3095 70.2855 16.831C69.7897 16.3525 69.088 16.1133 68.1806 16.1133C67.404 16.1133 66.6509 16.2304 65.9212 16.4649C65.1915 16.6992 64.4805 16.9873 63.7882 17.329L62.7216 14.8975C63.4795 14.4775 64.3401 14.1357 65.3037 13.8721C66.2767 13.6084 67.2871 13.4766 68.3349 13.4766ZM71.0292 22.251L69.0225 22.3242C67.376 22.3828 66.2205 22.6758 65.5564 23.2032C64.8922 23.7304 64.56 24.4531 64.56 25.3711C64.56 26.1718 64.7892 26.7577 65.2476 27.1288C65.7061 27.4902 66.3095 27.6709 67.0579 27.6709C68.1993 27.6709 69.1441 27.334 69.8926 26.6601C70.6503 25.9765 71.0292 24.9756 71.0292 23.6572V22.251ZM86.7882 13.4766C87.0502 13.4766 87.3354 13.4912 87.6442 13.5205C87.9529 13.5498 88.2196 13.5889 88.4441 13.6377L88.1354 16.8603C87.939 16.8018 87.6957 16.7578 87.4057 16.7284C87.1251 16.6992 86.8725 16.6845 86.6479 16.6845C86.0585 16.6845 85.4971 16.7871 84.964 16.9921C84.4307 17.1874 83.9583 17.4903 83.5466 17.9004C83.135 18.3007 82.8123 18.8037 82.5783 19.4092C82.3444 20.0146 82.2276 20.7177 82.2276 21.5185V30H78.9158V13.7842H81.4977L81.9468 16.6407H82.1013C82.4099 16.0644 82.7935 15.5371 83.2519 15.0586C83.7104 14.5801 84.2342 14.1992 84.8236 13.916C85.4224 13.623 86.0772 13.4766 86.7882 13.4766ZM97.5094 13.4766C98.894 13.4766 100.082 13.7744 101.074 14.3701C102.065 14.9658 102.828 15.8106 103.361 16.9042C103.894 17.998 104.161 19.3066 104.161 20.83V22.6758H93.7906C93.8281 24.2481 94.2303 25.459 94.9975 26.3086C95.7739 27.1582 96.8591 27.583 98.2531 27.583C99.2448 27.583 100.134 27.4854 100.919 27.2901C101.715 27.0849 102.533 26.7871 103.375 26.3965V29.1943C102.599 29.5752 101.808 29.8534 101.004 30.0292C100.199 30.205 99.2355 30.2929 98.1128 30.2929C96.5878 30.2929 95.2454 29.9853 94.0854 29.3701C92.9346 28.7451 92.0319 27.8173 91.3769 26.5869C90.7314 25.3564 90.4087 23.8281 90.4087 22.002C90.4087 20.1855 90.7034 18.6426 91.2927 17.373C91.8822 16.1035 92.7102 15.1366 93.7767 14.4727C94.8432 13.8086 96.0873 13.4766 97.5094 13.4766ZM97.5094 16.0693C96.471 16.0693 95.6289 16.4209 94.9835 17.124C94.3473 17.8272 93.9731 18.8574 93.8609 20.2149H100.933C100.924 19.4043 100.793 18.6865 100.541 18.0615C100.297 17.4364 99.9231 16.9482 99.4178 16.5967C98.9221 16.2451 98.2859 16.0693 97.5094 16.0693ZM120.06 24.1699C120.06 25.4394 119.761 26.5332 119.162 27.4512C118.573 28.3692 117.722 29.0722 116.608 29.5605C115.504 30.0489 114.185 30.2929 112.651 30.2929C111.903 30.2929 111.187 30.249 110.504 30.1611C109.821 30.0732 109.175 29.9463 108.567 29.7802C107.969 29.6044 107.421 29.3946 106.926 29.1504V25.8399C107.758 26.2207 108.689 26.5674 109.718 26.8798C110.747 27.1825 111.795 27.334 112.861 27.334C113.732 27.334 114.452 27.2167 115.022 26.9824C115.603 26.7382 116.033 26.3965 116.314 25.957C116.594 25.5078 116.735 24.9853 116.735 24.3897C116.735 23.7549 116.571 23.2177 116.243 22.7782C115.916 22.3389 115.42 21.9385 114.756 21.5772C114.101 21.2061 113.278 20.8105 112.286 20.3907C111.613 20.1073 110.967 19.7851 110.35 19.4238C109.741 19.0624 109.199 18.6376 108.722 18.1494C108.245 17.6611 107.866 17.085 107.585 16.4209C107.314 15.747 107.178 14.956 107.178 14.0478C107.178 12.8369 107.454 11.8018 108.006 10.9424C108.567 10.083 109.353 9.42382 110.364 8.96484C111.383 8.50585 112.571 8.27637 113.928 8.27637C115.004 8.27637 116.014 8.39355 116.959 8.62792C117.913 8.8623 118.849 9.19434 119.766 9.62403L118.699 12.4512C117.857 12.0898 117.039 11.8018 116.243 11.5869C115.458 11.3721 114.653 11.2647 113.83 11.2647C113.119 11.2647 112.515 11.377 112.02 11.6016C111.524 11.8262 111.145 12.1435 110.883 12.5537C110.63 12.9541 110.504 13.4326 110.504 13.9893C110.504 14.6143 110.649 15.1416 110.939 15.5713C111.238 15.9912 111.697 16.377 112.314 16.7284C112.941 17.08 113.745 17.4706 114.728 17.9004C115.86 18.3886 116.819 18.9013 117.605 19.4385C118.4 19.9756 119.008 20.62 119.429 21.372C119.85 22.1142 120.06 23.0469 120.06 24.1699ZM129.771 13.4766C131.736 13.4766 133.219 13.9307 134.22 14.8389C135.23 15.747 135.735 17.1631 135.735 19.0869V30H133.392L132.76 27.7002H132.648C132.208 28.2861 131.754 28.7695 131.287 29.1504C130.819 29.5312 130.276 29.8144 129.659 30C129.051 30.1953 128.307 30.2929 127.428 30.2929C126.501 30.2929 125.674 30.1171 124.944 29.7657C124.214 29.4043 123.639 28.8574 123.218 28.125C122.797 27.3925 122.586 26.4648 122.586 25.3417C122.586 23.6718 123.18 22.417 124.368 21.5772C125.566 20.7373 127.372 20.2734 129.785 20.1855L132.48 20.083V19.2334C132.48 18.1104 132.227 17.3095 131.722 16.831C131.226 16.3525 130.524 16.1133 129.617 16.1133C128.84 16.1133 128.087 16.2304 127.357 16.4649C126.628 16.6992 125.917 16.9873 125.224 17.329L124.158 14.8975C124.916 14.4775 125.776 14.1357 126.74 13.8721C127.713 13.6084 128.723 13.4766 129.771 13.4766ZM132.466 22.251L130.459 22.3242C128.812 22.3828 127.657 22.6758 126.993 23.2032C126.328 23.7304 125.996 24.4531 125.996 25.3711C125.996 26.1718 126.225 26.7577 126.684 27.1288C127.142 27.4902 127.746 27.6709 128.494 27.6709C129.636 27.6709 130.58 27.334 131.329 26.6601C132.087 25.9765 132.466 24.9756 132.466 23.6572V22.251ZM146.442 13.4766C148.406 13.4766 149.889 13.9307 150.891 14.8389C151.901 15.747 152.407 17.1631 152.407 19.0869V30H150.063L149.431 27.7002H149.319C148.879 28.2861 148.425 28.7695 147.958 29.1504C147.49 29.5312 146.948 29.8144 146.33 30C145.722 30.1953 144.978 30.2929 144.098 30.2929C143.173 30.2929 142.345 30.1171 141.615 29.7657C140.885 29.4043 140.31 28.8574 139.889 28.125C139.468 27.3925 139.258 26.4648 139.258 25.3417C139.258 23.6718 139.852 22.417 141.04 21.5772C142.237 20.7373 144.042 20.2734 146.456 20.1855L149.151 20.083V19.2334C149.151 18.1104 148.898 17.3095 148.394 16.831C147.898 16.3525 147.195 16.1133 146.288 16.1133C145.511 16.1133 144.758 16.2304 144.028 16.4649C143.299 16.6992 142.588 16.9873 141.896 17.329L140.829 14.8975C141.587 14.4775 142.448 14.1357 143.411 13.8721C144.384 13.6084 145.395 13.4766 146.442 13.4766ZM149.136 22.251L147.13 22.3242C145.484 22.3828 144.328 22.6758 143.664 23.2032C143 23.7304 142.667 24.4531 142.667 25.3711C142.667 26.1718 142.897 26.7577 143.355 27.1288C143.814 27.4902 144.417 27.6709 145.165 27.6709C146.307 27.6709 147.251 27.334 148 26.6601C148.757 25.9765 149.136 24.9756 149.136 23.6572V22.251ZM169.204 24.1699C169.204 25.4394 168.905 26.5332 168.306 27.4512C167.717 28.3692 166.864 29.0722 165.752 29.5605C164.647 30.0489 163.328 30.2929 161.795 30.2929C161.046 30.2929 160.33 30.249 159.648 30.1611C158.964 30.0732 158.319 29.9463 157.711 29.7802C157.112 29.6044 156.564 29.3946 156.068 29.1504V25.8399C156.902 26.2207 157.833 26.5674 158.862 26.8798C159.891 27.1825 160.938 27.334 162.005 27.334C162.875 27.334 163.595 27.2167 164.166 26.9824C164.746 26.7382 165.176 26.3965 165.458 25.957C165.738 25.5078 165.879 24.9853 165.879 24.3897C165.879 23.7549 165.715 23.2177 165.387 22.7782C165.06 22.3389 164.564 21.9385 163.9 21.5772C163.245 21.2061 162.421 20.8105 161.43 20.3907C160.756 20.1073 160.111 19.7851 159.493 19.4238C158.885 19.0624 158.342 18.6376 157.865 18.1494C157.388 17.6611 157.01 17.085 156.728 16.4209C156.458 15.747 156.321 14.956 156.321 14.0478C156.321 12.8369 156.597 11.8018 157.149 10.9424C157.711 10.083 158.497 9.42382 159.507 8.96484C160.527 8.50585 161.714 8.27637 163.071 8.27637C164.147 8.27637 165.157 8.39355 166.103 8.62792C167.057 8.8623 167.992 9.19434 168.909 9.62403L167.843 12.4512C167.001 12.0898 166.182 11.8018 165.387 11.5869C164.601 11.3721 163.796 11.2647 162.973 11.2647C162.262 11.2647 161.658 11.377 161.162 11.6016C160.667 11.8262 160.289 12.1435 160.026 12.5537C159.774 12.9541 159.648 13.4326 159.648 13.9893C159.648 14.6143 159.793 15.1416 160.082 15.5713C160.382 15.9912 160.841 16.377 161.457 16.7284C162.085 17.08 162.888 17.4706 163.871 17.9004C165.004 18.3886 165.962 18.9013 166.748 19.4385C167.543 19.9756 168.152 20.62 168.573 21.372C168.994 22.1142 169.204 23.0469 169.204 24.1699Z" fill="white"/>
</svg>
